<svg width="358" height="357" viewBox="0 0 358 357" fill="none" xmlns="http://www.w3.org/2000/svg">
<path d="M324.481 256.641C280.553 315.158 186.755 295.409 126.602 298.238C126.602 298.238 115.944 298.843 105.234 300.604C105.234 300.604 109.29 298.878 114.468 297.081C156.705 282.475 176.667 279.539 202.341 266.355C250.556 241.66 298.558 187.841 308.326 131.939C289.965 185.706 234.135 231.982 183.304 250.77C148.521 263.615 85.5919 276.105 85.5741 276.105C85.6097 276.141 83.0655 274.789 83.0299 274.753C40.2409 253.937 38.9955 161.242 116.727 131.37C150.816 118.275 183.393 125.463 220.239 116.692C259.523 107.351 305.034 77.9059 323.52 39.4048C344.247 100.928 369.155 197.146 324.481 256.641V256.641ZM325.228 20.3677C320.015 32.7863 313.628 43.9772 306.28 53.9939C273.917 20.7769 228.726 0.0673828 178.767 0.0673828C80.5035 0.0673828 0.583328 79.9875 0.583328 178.233C0.583328 229.74 22.556 276.176 57.6056 308.717L61.5198 312.169C55.008 306.867 53.9939 297.295 59.278 290.765C64.5977 284.236 74.1697 283.24 80.6814 288.524C87.2109 293.826 88.2251 303.415 82.9232 309.945C77.6568 316.474 68.0671 317.471 61.5376 312.187L64.1885 314.535C95.1816 340.653 135.142 356.417 178.767 356.417C272.671 356.417 349.798 283.329 356.399 191.097C361.274 145.923 347.93 88.5631 325.228 20.3677Z" fill="#A66CFF"/>
</svg>
