<svg width="560" height="700" viewBox="0 0 560 700" fill="none" xmlns="http://www.w3.org/2000/svg">
<path d="M416.253 3.74931C414.066 1.56181 411.097 0.332611 408.003 0.332611H81.337C59.686 0.358711 38.925 8.96811 23.618 24.2806C8.30598 39.5873 -0.303017 60.3486 -0.330017 81.999V618.666C-0.304017 640.317 8.30498 661.078 23.618 676.385C38.925 691.697 59.686 700.306 81.337 700.333H478.003C499.654 700.307 520.415 691.697 535.722 676.385C551.034 661.078 559.643 640.317 559.67 618.666V151.999C559.67 148.906 558.441 145.937 556.253 143.749L416.253 3.74931ZM419.67 40.1653L519.837 140.332H478.003C462.539 140.316 447.711 134.165 436.774 123.228C425.837 112.291 419.686 97.463 419.67 81.999V40.1653ZM81.337 23.6653H396.337V81.999C396.363 103.649 404.972 124.411 420.285 139.717C435.591 155.029 456.353 163.639 478.003 163.665H536.337V490.332H23.003V81.999C23.019 66.5346 29.17 51.7066 40.107 40.7693C51.045 29.832 65.873 23.6813 81.337 23.6653ZM478.003 676.999H81.337C65.873 676.983 51.045 670.832 40.107 659.895C29.17 648.957 23.019 634.129 23.003 618.665V513.665H536.337V618.665C536.321 634.129 530.17 648.957 519.233 659.895C508.295 670.832 493.467 676.983 478.003 676.999Z" fill="#A66CFF"/>
<path d="M174.667 560.333H198C204.443 560.333 209.667 555.109 209.667 548.667C209.667 542.224 204.443 537 198 537H174.667C162.161 537 150.609 543.672 144.355 554.5C138.105 565.328 138.105 578.672 144.355 589.5C150.61 600.328 162.161 607 174.667 607C181.109 607 186.333 612.224 186.333 618.667C186.333 625.109 181.109 630.333 174.667 630.333H151.333C144.891 630.333 139.667 635.557 139.667 642C139.667 648.443 144.891 653.667 151.333 653.667H174.667C187.172 653.667 198.724 646.995 204.979 636.167C211.229 625.339 211.229 611.995 204.979 601.167C198.723 590.339 187.172 583.667 174.667 583.667C168.224 583.667 163 578.443 163 572C163 565.557 168.224 560.333 174.667 560.333Z" fill="#A66CFF"/>
<path d="M408 630.333H373V548.667C373 542.224 367.776 537 361.333 537C354.891 537 349.667 542.224 349.667 548.667V642C349.667 645.094 350.896 648.063 353.083 650.25C355.271 652.437 358.24 653.667 361.333 653.667H408C414.443 653.667 419.667 648.443 419.667 642C419.667 635.557 414.443 630.333 408 630.333Z" fill="#A66CFF"/>
<path d="M317.893 628.733C323.508 618.504 326.414 607.009 326.331 595.337C326.331 563.171 305.399 537.004 279.664 537.004C253.929 537.004 232.997 563.171 232.997 595.337C232.997 627.504 253.929 653.671 279.664 653.671C287.836 653.613 295.784 651.02 302.413 646.249L306.419 650.254C310.976 654.811 318.361 654.811 322.919 650.254C327.476 645.697 327.476 638.311 322.919 633.754L317.893 628.733ZM279.664 630.337C267.018 630.337 256.331 614.311 256.331 595.337C256.331 576.364 267.018 560.337 279.664 560.337C292.31 560.337 302.997 576.364 302.997 595.337C303.013 600.739 302.122 606.098 300.362 611.201L287.914 598.754C283.357 594.196 275.971 594.196 271.414 598.754C266.857 603.311 266.857 610.696 271.414 615.254L285.383 629.223C283.566 629.952 281.623 630.332 279.665 630.338L279.664 630.337Z" fill="#A66CFF"/>
<path d="M202.893 413.213C223.529 417.802 250.795 420.328 279.669 420.328C308.544 420.328 335.815 417.802 356.445 413.213C373.571 409.411 396.336 402.38 396.336 385.328V175.328C396.336 158.276 373.571 151.245 356.445 147.443C335.815 142.854 308.544 140.328 279.669 140.328C250.795 140.328 223.524 142.854 202.893 147.443C185.768 151.245 163.003 158.276 163.003 175.328V385.328C163.003 402.38 185.768 409.411 202.893 413.213ZM279.669 396.995C226.085 396.995 193.44 388.167 186.336 382.964V338.595C191.753 340.48 197.284 342.022 202.893 343.214C223.529 347.803 250.795 350.329 279.669 350.329C308.544 350.329 335.815 347.803 356.445 343.214C362.055 342.022 367.586 340.48 373.003 338.595V382.959C365.899 388.167 333.253 396.995 279.669 396.995ZM186.336 268.593C191.753 270.479 197.284 272.02 202.893 273.213C223.529 277.802 250.795 280.328 279.669 280.328C308.544 280.328 335.815 277.802 356.445 273.213C362.055 272.02 367.586 270.479 373.003 268.593V312.948C365.935 318.146 333.3 326.989 279.669 326.989C226.039 326.989 193.404 318.146 186.336 312.948V268.593ZM186.336 198.593C191.753 200.479 197.284 202.02 202.893 203.213C223.529 207.802 250.795 210.328 279.669 210.328C308.544 210.328 335.815 207.802 356.445 203.213C362.055 202.02 367.586 200.479 373.003 198.593V242.948C365.935 248.146 333.3 256.989 279.669 256.989C226.039 256.989 193.404 248.146 186.336 242.948V198.593ZM279.669 163.661C325.752 163.661 356.341 170.193 368.529 175.328C356.342 180.463 325.748 186.995 279.669 186.995C233.591 186.995 202.997 180.463 190.809 175.328C202.997 170.193 233.585 163.661 279.669 163.661Z" fill="#A66CFF"/>
</svg>
